<svg xmlns="http://www.w3.org/2000/svg" width="185" height="132" viewBox="0 0 185 132" fill="none">
  <g clip-path="url(#clip0_44_3978)">
    <path d="M175.333 0.193523C175.634 23.9366 174.095 62.279 162.508 82.9768C161.323 84.6209 159.821 86.0107 158.089 87.0638C156.358 88.1169 154.433 88.812 152.428 89.108C145.979 89.849 139.881 86.5025 134.898 82.757C123.05 73.6864 113.198 62.2953 104.144 50.5214L105.145 50.5621C98.2491 58.3735 90.7662 65.6468 82.7621 72.3185C67.1369 85.1508 47.123 98.3089 25.9529 94.3436C18.0793 92.7802 11.1583 87.9762 6.27284 81.6496C4.64437 79.6792 3.24389 77.3912 1.66427 75.4452L3.08918 74.8426C3.3416 78.2136 3.53701 81.5601 3.83828 84.8984C5.0922 97.6168 7.27435 112.273 16.1169 122.076C18.326 124.474 21.0184 126.375 24.0164 127.655C27.0144 128.935 30.2498 129.565 33.509 129.502C35.1522 129.4 36.7853 129.174 38.3944 128.826C46.5368 127.06 54.4756 124.226 62.3411 121.335C81.1825 114.545 98.1023 102.478 111.309 87.4226L111.92 86.7223L112.465 87.4714C121.894 100.32 135.402 117.289 149.578 124.78C154.13 127.068 159.349 128.379 164.031 125.7C173.802 120 177.637 103.536 180.031 93.1303C180.462 91.1355 181.057 89.0592 181.464 87.0317C183.752 74.7286 184.02 62.0998 183.393 49.5769C182.345 32.8898 179.645 16.3478 175.333 0.193523ZM175.333 0.193523C181.928 24.3519 185.649 49.6583 183.841 74.7205C183.543 79.44 182.917 84.1331 181.969 88.766C181.048 92.2998 180.34 95.915 179.469 99.4732C176.318 112.24 169.047 133.753 151.94 127.157C150.442 126.597 148.988 125.924 147.592 125.146C139.75 120.733 133.261 114.366 127.146 107.868C121.47 101.671 116.163 95.1458 111.252 88.3264L112.4 88.3752C101.262 101.207 87.6145 111.623 72.2992 118.982C69.2377 120.456 66.054 121.612 62.8866 122.817C56.56 125.187 50.1846 127.418 43.6625 129.209C39.5262 130.251 35.2759 131.456 30.9442 131.033C16.5892 129.787 9.05753 117.875 5.5726 105.075C2.57621 94.4901 2.0551 83.3758 1.27344 72.4488L2.90191 74.3622C4.59552 76.4467 5.90644 78.5881 7.56748 80.6318C20.2533 97.2585 40.6743 95.7603 57.7977 87.2923C66.398 82.8564 74.4672 77.4588 81.8502 71.203C90.0235 64.4391 97.6646 57.0566 104.706 49.1209C113.198 60.5854 132.145 83.3188 145.572 87.4795C148.45 88.5217 151.589 88.5991 154.515 87.7002C157.441 86.8012 159.995 84.9747 161.792 82.4964C163.511 79.4788 164.96 76.3155 166.124 73.0432C169.698 63.1339 171.546 52.6873 172.914 42.2732C174.615 28.3124 175.423 14.2573 175.333 0.193523Z" stroke="url(#paint0_linear_44_3978)" stroke-width="1.15621" stroke-miterlimit="10"/>
  </g>
  <defs>
    <linearGradient id="paint0_linear_44_3978" x1="0.573195" y1="65.8697" x2="184.875" y2="65.8697" gradientUnits="userSpaceOnUse">
      <stop stop-color="#7237BD"/>
      <stop offset="1" stop-color="#FD0988"/>
    </linearGradient>
    <clipPath id="clip0_44_3978">
      <rect width="184.302" height="131.67" fill="white" transform="translate(0.573242 0.0388184)"/>
    </clipPath>
  </defs>
</svg>