<svg xmlns="http://www.w3.org/2000/svg" width="20" height="39" viewBox="0 0 20 39" fill="none">
  <g clip-path="url(#clip0_42_3947)">
    <path d="M8.40803 1.45779C7.21626 2.04586 6.26154 3.024 5.70245 4.22964C5.12998 5.88306 4.8808 7.63113 4.96845 9.37865V11.4344H0.952148V17.127H4.96845V38.7799H12.2036V17.127H17.612V11.4344H12.2036V9.50278C12.0947 8.5113 12.339 7.51323 12.8934 6.6841C13.1983 6.41332 13.5557 6.20827 13.9433 6.08175C14.331 5.95523 14.7405 5.90991 15.1465 5.9487C16.2658 5.95699 17.3803 6.09588 18.4674 6.36259L19.4442 1.3185C17.488 0.700563 15.4485 0.386916 13.397 0.388573C11.6734 0.325351 9.9612 0.692337 8.41493 1.45644" fill="white"/>
  </g>
  <defs>
    <clipPath id="clip0_42_3947">
      <rect width="18.4851" height="38.39" fill="white" transform="translate(0.952148 0.389893)"/>
    </clipPath>
  </defs>
</svg>