<svg xmlns="http://www.w3.org/2000/svg" width="70" height="70" viewBox="0 0 70 70" fill="none">
<path d="M59.3474 17.8803H10.6517C7.91258 17.8803 5.70605 15.6738 5.70605 12.9347C5.70605 10.1955 7.91258 7.98901 10.6517 7.98901H59.3474C62.0865 7.98901 64.293 10.1955 64.293 12.9347C64.293 15.6738 62.0865 17.8803 59.3474 17.8803ZM64.293 34.9999C64.293 32.2608 62.0865 30.0542 59.3474 30.0542H10.6517C7.91258 30.0542 5.70605 32.2608 5.70605 34.9999C5.70605 37.739 7.91258 39.9455 10.6517 39.9455H59.3474C62.0865 39.9455 64.293 37.739 64.293 34.9999ZM64.293 57.0651C64.293 54.326 62.0865 52.1194 59.3474 52.1194H10.6517C7.91258 52.1194 5.70605 54.326 5.70605 57.0651C5.70605 59.8042 7.91258 62.0108 10.6517 62.0108H59.3474C62.0865 62.0108 64.293 59.8042 64.293 57.0651Z" fill="url(#paint0_linear_91_2)"/>
<defs>
<linearGradient id="paint0_linear_91_2" x1="34.9995" y1="7.98901" x2="34.9995" y2="62.0108" gradientUnits="userSpaceOnUse">
<stop stop-color="#2435EC"/>
<stop offset="1" stop-color="#7237BD"/>
</linearGradient>
</defs>
</svg>