<svg xmlns="http://www.w3.org/2000/svg" width="39" height="39" viewBox="0 0 39 39" fill="none">
  <g clip-path="url(#clip0_42_3943)">
    <path d="M19.1798 25.6061C15.6249 25.6061 12.738 22.7038 12.761 19.1643C12.784 15.6171 15.6633 12.7532 19.2028 12.7608C22.7424 12.7685 25.614 15.6401 25.614 19.1796C25.614 22.7422 22.7501 25.6061 19.1952 25.6061C19.1875 25.6061 19.1875 25.6061 19.1798 25.6061ZM9.32892 19.0722C9.29821 24.5619 13.6593 29.0152 19.103 29.0536C24.5774 29.0843 29.023 24.7001 29.0537 19.2487C29.0844 13.7667 24.6926 9.3518 19.1875 9.32877C19.1721 9.32877 19.1568 9.32877 19.1414 9.32877C13.7822 9.32877 9.35963 13.7129 9.32892 19.0722ZM29.3685 6.64147C28.117 6.67218 27.0881 7.75478 27.1342 8.99862C27.1726 10.2732 28.2245 11.279 29.4837 11.2406C30.7736 11.2099 31.7794 10.158 31.7487 8.89112C31.718 7.63961 30.6891 6.64147 29.4299 6.64147C29.4069 6.64147 29.3839 6.64147 29.3685 6.64147ZM19.1952 3.41671C21.8748 3.47813 24.5467 3.4551 27.2263 3.53956C28.6621 3.58563 30.0672 3.84668 31.3417 4.55305C33.1077 5.53584 34.1135 7.07912 34.5588 9.02165C34.8199 10.1503 34.889 11.3097 34.8967 12.4614C34.9197 16.9453 34.9197 21.437 34.8967 25.9209C34.889 27.1801 34.8199 28.447 34.482 29.6678C33.7142 32.4626 31.8639 34.0903 29.0537 34.6124C28.0709 34.7967 27.0574 34.8888 26.0516 34.8965C21.4678 34.9272 16.8841 34.9195 12.3003 34.9042C11.0872 34.8965 9.87406 34.8121 8.69933 34.4896C5.93525 33.7295 4.32287 31.9021 3.76237 29.115C3.4399 27.518 3.43222 25.8902 3.43222 24.2702C3.41686 20.3237 3.44757 16.3695 3.47829 12.423C3.48596 11.1638 3.56274 9.89694 3.90058 8.67614C4.66838 5.92742 6.49574 4.32271 9.2675 3.77758C11.0104 3.43207 12.7917 3.47046 14.5576 3.43207C16.1086 3.39368 17.6519 3.41671 19.1952 3.41671C19.1952 3.43207 19.1952 3.39368 19.1952 3.41671ZM12.7994 0.023034C11.3329 0.030712 9.86638 0.099814 8.4306 0.42229C4.45339 1.32829 1.80448 3.68544 0.629748 7.62425C0.123 9.32109 0.0385422 11.0717 0.0231862 12.8146C-0.00752576 17.0528 0.000152242 21.2988 0.0231862 25.5447C0.0308642 27.0112 0.0922882 28.4777 0.422442 29.9135C1.39755 34.1901 4.00039 36.8774 8.27704 37.9063C10.043 38.3286 11.8473 38.3363 13.644 38.3593C15.4944 38.39 17.3371 38.367 19.1875 38.367C21.0532 38.367 22.919 38.39 24.7924 38.3593C26.4893 38.3363 28.1938 38.3286 29.8676 37.9524C34.1903 36.9926 36.8929 34.3744 37.9218 30.0517C38.3441 28.2781 38.3594 26.4661 38.3748 24.6617C38.3978 20.9993 38.3978 17.3292 38.3748 13.6668C38.3594 11.9239 38.3441 10.181 37.9679 8.47651C37.0619 4.39949 34.6356 1.71987 30.5893 0.57585C28.9462 0.107492 27.2494 0.030712 25.5602 0.015356C23.4641 0.007678 21.368 0 19.2719 0C17.1144 0 14.9569 0.007678 12.7994 0.023034Z" fill="white"/>
  </g>
  <defs>
    <clipPath id="clip0_42_3943">
      <rect width="38.39" height="38.39" fill="white"/>
    </clipPath>
  </defs>
</svg>