<svg xmlns="http://www.w3.org/2000/svg" width="39" height="37" viewBox="0 0 39 37" fill="none">
  <g clip-path="url(#clip0_42_3955)">
    <path d="M0 36.6931H7.02685V10.1352H0V36.6931ZM20.7083 14.0327V10.1352H14.1817V36.6931H21.2119V24.6673C21.1171 22.6167 21.2972 20.5628 21.7475 18.5601C22.0897 17.4794 22.7909 16.5482 23.735 15.9208C24.6955 15.2504 25.8414 14.8971 27.0126 14.9102C27.8782 14.8839 28.7306 15.1276 29.4515 15.6075C30.1382 16.0892 30.651 16.7798 30.9134 17.5765C31.3131 19.4005 31.4655 21.27 31.3665 23.1346V36.6881H38.39V20.1821C38.4351 18.5972 38.3046 17.0121 38.0009 15.4559C37.7604 14.3865 37.2929 13.3813 36.6299 12.5084C35.8579 11.5567 34.8546 10.8191 33.7161 10.366C31.4534 9.41837 28.9367 9.26392 26.5751 9.92778C24.2135 10.5917 22.1458 12.0348 20.7083 14.0227M0 6.5258H7.02685V0.03125H0V6.5258Z" fill="white"/>
  </g>
  <defs>
    <clipPath id="clip0_42_3955">
      <rect width="38.39" height="36.6569" fill="white" transform="translate(0 0.036377)"/>
    </clipPath>
  </defs>
</svg>