<svg xmlns="http://www.w3.org/2000/svg" width="50" height="50" viewBox="0 0 50 50" fill="none">
  <g clip-path="url(#clip0_42_3937)">
    <path d="M24.9717 49.6692C38.6116 49.6692 49.6689 38.6118 49.6689 24.9719C49.6689 11.332 38.6116 0.274658 24.9717 0.274658C11.3318 0.274658 0.274414 11.332 0.274414 24.9719C0.274414 38.6118 11.3318 49.6692 24.9717 49.6692Z" fill="#2196F3"/>
    <path d="M31.7403 38.7409C30.6673 38.7414 29.5044 38.5691 28.2717 38.2217C24.8124 37.2464 21.1896 34.9918 18.0712 31.8728C14.9527 28.7544 12.6982 25.1316 11.7223 21.6723C10.7125 18.0896 11.1856 15.0869 13.0554 13.2171C13.1235 13.149 13.1926 13.0832 13.264 13.0195C13.2821 12.9943 13.3024 12.9701 13.3255 12.9476L14.3238 11.9493C14.8051 11.468 15.4445 11.2029 16.125 11.2029C16.8056 11.2029 17.445 11.468 17.9263 11.9493L21.7549 15.7785C22.7477 16.7713 22.7477 18.3876 21.7549 19.3804L20.1145 21.0203C19.7012 21.4336 19.7012 22.1065 20.1145 22.5197L27.4243 29.829C27.8244 30.2291 28.5231 30.2291 28.9237 29.829L30.5636 28.1891C31.5564 27.1968 33.1733 27.1957 34.1661 28.1886L37.9953 32.0177C38.4761 32.4985 38.7411 33.1384 38.7411 33.8184C38.7411 34.4984 38.4761 35.1384 37.9953 35.6191L36.997 36.6175C36.9739 36.6405 36.9492 36.6614 36.924 36.68C36.8598 36.7514 36.7945 36.8205 36.7264 36.888C35.4998 38.1152 33.7852 38.7409 31.7403 38.7409Z" fill="white"/>
  </g>
  <defs>
    <clipPath id="clip0_42_3937">
      <rect width="50" height="50" fill="white"/>
    </clipPath>
  </defs>
</svg>