<svg xmlns="http://www.w3.org/2000/svg" width="34" height="39" viewBox="0 0 34 39" fill="none">
  <g clip-path="url(#clip0_42_3959)">
    <path d="M18.538 0.559814V13.7166L18.5256 26.5712C18.5256 26.6706 18.5407 26.7685 18.5407 26.8706C18.5454 28.115 18.1539 29.3285 17.4229 30.3356C16.6919 31.3426 15.6593 32.0908 14.4747 32.4719C13.2901 32.853 12.015 32.8472 10.8339 32.4552C9.65285 32.0633 8.62719 31.3057 7.90544 30.292C7.18369 29.2783 6.80331 28.0612 6.81939 26.8169C6.83547 25.5726 7.24717 24.3657 7.99487 23.371C8.74257 22.3763 9.78747 21.6454 10.9783 21.2841C12.1691 20.9228 13.4439 20.9499 14.6183 21.3615V14.9472C12.1781 14.5558 9.67648 14.9221 7.451 15.9969C5.22552 17.0717 3.38323 18.8032 2.17262 20.9578C0.962024 23.1124 0.441374 25.5865 0.68091 28.0463C0.920446 30.506 1.90864 32.8332 3.51219 34.7137C5.11574 36.5943 7.2575 37.9378 9.64852 38.563C12.0395 39.1882 14.5648 39.0651 16.8836 38.2101C19.2025 37.3552 21.2033 35.8096 22.6163 33.782C24.0292 31.7543 24.7862 29.342 24.7852 26.8706V11.5836C27.21 14.226 30.3239 16.1396 33.7767 17.1092V10.5543C30.0253 8.89182 26.2946 3.98283 25.0598 2.02229L24.1423 0.559814H18.538Z" fill="white"/>
  </g>
  <defs>
    <clipPath id="clip0_42_3959">
      <rect width="33.1582" height="38.39" fill="white" transform="translate(0.616211 0.559814)"/>
    </clipPath>
  </defs>
</svg>