<svg xmlns="http://www.w3.org/2000/svg" width="39" height="32" viewBox="0 0 39 32" fill="none">
  <g clip-path="url(#clip0_42_3951)">
    <path d="M21.3128 28.4506C21.3128 28.4203 21.3128 28.3899 21.3212 28.3596H21.3516C21.3516 28.3916 21.3516 28.4219 21.3516 28.4539H21.3061M24.801 0.521636C22.8162 0.978717 21.0858 2.18724 19.9734 3.8933C18.8609 5.59936 18.453 7.67018 18.8352 9.67071C18.8554 9.78187 18.8723 9.89308 18.8942 10.0329C17.33 9.96499 15.7779 9.72603 14.2658 9.32036C9.66045 8.10289 5.55759 5.46136 2.54309 1.77303C1.88177 2.90135 1.52214 4.18104 1.49884 5.48866C1.45646 6.82542 1.75186 8.15128 2.35774 9.34359C2.96361 10.5359 3.86039 11.5562 4.9651 12.31C4.35473 12.3044 3.74771 12.2189 3.15953 12.0557C2.55956 11.8853 1.9792 11.6521 1.42808 11.36C1.41087 12.6716 1.72793 13.966 2.34939 15.1211C2.89404 16.1508 3.65763 17.0487 4.58643 17.7517C5.51524 18.4547 6.58674 18.9457 7.72564 19.1903C7.67722 19.2222 7.62367 19.2456 7.56733 19.2594C6.54584 19.513 5.48347 19.5565 4.44465 19.3873C4.38233 19.3772 4.31497 19.379 4.22571 19.3722C4.42915 20.0008 4.71216 20.6008 5.06785 21.1576C5.41528 21.7008 5.82758 22.1997 6.29568 22.6431C6.76906 23.0908 7.29505 23.4793 7.86208 23.8002C8.42255 24.1162 9.01995 24.3618 9.64069 24.5312C10.2685 24.6944 10.9102 24.7987 11.5574 24.8428C10.5469 25.6621 9.43091 26.3419 8.23936 26.8639C5.64952 28.0125 2.80478 28.4653 -0.0136719 28.1776C0.043594 28.2147 0.10087 28.2551 0.154767 28.2905C1.0301 28.8332 1.94176 29.3149 2.88331 29.7323C5.3916 30.8563 8.08912 31.4979 10.8349 31.6237C12.0638 31.6886 13.2959 31.6582 14.5201 31.5327C15.5443 31.4292 16.5609 31.2605 17.5636 31.0275C21.7726 30.0514 25.5805 27.8068 28.4727 24.5969C31.0344 21.7848 32.8657 18.3862 33.8052 14.7C34.154 13.3871 34.3795 12.0445 34.4789 10.6897C34.545 9.90547 34.5596 9.11784 34.5227 8.33173C34.511 8.25806 34.5207 8.18254 34.5505 8.1142C34.5804 8.04585 34.6292 7.98753 34.6911 7.94602C36.0782 6.92361 37.2878 5.68035 38.2719 4.26585C38.323 4.21376 38.357 4.14733 38.3696 4.07546C36.9719 4.68182 35.4903 5.07261 33.9753 5.23434C34.0238 5.18067 34.0807 5.13514 34.1437 5.09956C35.6109 4.17004 36.7295 2.78133 37.3253 1.14985C37.3489 1.08753 37.3658 1.02524 37.3978 0.920812L37.1704 1.04376C35.7392 1.8521 34.1924 2.43607 32.5841 2.77524C32.5264 2.78998 32.4658 2.78778 32.4093 2.76897C32.3529 2.75015 32.303 2.71553 32.2657 2.66915C31.5501 1.92734 30.6935 1.33577 29.7464 0.929139C28.7992 0.522507 27.7804 0.308974 26.7497 0.301025C26.0983 0.304463 25.4494 0.379578 24.8145 0.525028" fill="white"/>
  </g>
  <defs>
    <clipPath id="clip0_42_3951">
      <rect width="38.39" height="31.3615" fill="white" transform="translate(0 0.294189)"/>
    </clipPath>
  </defs>
</svg>