<svg xmlns="http://www.w3.org/2000/svg" width="50" height="50" viewBox="0 0 50 50" fill="none">
  <g clip-path="url(#clip0_42_3931)">
    <path d="M49.9216 25.0281C49.9216 38.7444 38.7998 49.875 25.0829 49.875C11.3629 49.875 0.244141 38.7444 0.244141 25.0281C0.244141 11.3119 11.3629 0.1875 25.0829 0.1875C38.7998 0.1875 49.9216 11.3119 49.9216 25.0281Z" fill="#0D9F16"/>
    <path fill-rule="evenodd" clip-rule="evenodd" d="M39.4577 21.5668C37.8383 14.8486 32.0583 10.2655 25.0721 10.1868C24.1521 10.2018 23.1889 10.2774 22.2364 10.4774C12.4902 12.4505 7.4402 23.2561 12.1908 31.9805C12.3133 32.2143 12.3227 32.403 12.2552 32.6443C11.6233 34.9443 10.9977 37.2443 10.3683 39.5361C10.2664 39.9136 10.2664 39.9136 10.6433 39.8155C13.0283 39.1899 15.4089 38.5711 17.7921 37.938C17.9896 37.8849 18.1446 37.9074 18.3252 37.998C21.3946 39.5661 24.6277 40.0268 28.0133 39.3705C36.1021 37.8024 41.3883 29.5749 39.4577 21.5668ZM27.1346 37.0105C26.4689 37.1236 25.8002 37.1836 25.4477 37.1768C22.8558 37.1693 20.7421 36.5886 18.7983 35.4124C18.5496 35.2611 18.3327 35.2236 18.0421 35.2993C16.7358 35.6611 15.4196 35.9855 14.1114 36.3318C13.8364 36.4149 13.8102 36.3543 13.8796 36.1055C14.2264 34.8618 14.5527 33.6249 14.9108 32.3955C15.0102 32.0486 14.9752 31.7849 14.7771 31.4755C12.0889 27.1549 12.2021 21.7711 15.2108 17.7743C18.3364 13.6118 22.5858 11.908 27.6702 12.9936C32.6808 14.0493 35.8746 17.2843 37.0489 22.2686C38.6527 29.0849 34.0264 35.8643 27.1346 37.0105Z" fill="#FCFCFC"/>
    <path fill-rule="evenodd" clip-rule="evenodd" d="M28.9291 31.9961C28.4035 32.0186 27.9016 31.898 27.3985 31.7624C24.0147 30.7893 21.4753 28.6705 19.4353 25.8805C18.6641 24.8324 17.9503 23.7468 17.7128 22.4418C17.4278 20.873 17.8785 19.5461 19.0453 18.4599C19.4166 18.1205 20.5478 17.9699 21.0003 18.1886C21.1685 18.2718 21.2753 18.4224 21.3453 18.5811C21.7728 19.5993 22.1953 20.6018 22.6141 21.6199C22.6935 21.8161 22.6591 22.0043 22.571 22.2005C22.356 22.668 22.011 23.0449 21.6603 23.4143C21.3947 23.6861 21.3828 23.9349 21.5791 24.2593C22.7741 26.2499 24.4272 27.6974 26.5897 28.5649C26.9122 28.693 27.1553 28.648 27.3697 28.3768C27.7297 27.9318 28.1103 27.4868 28.4516 27.0268C28.6853 26.7024 28.9528 26.6574 29.2828 26.808C29.9972 27.1324 30.7116 27.4718 31.4266 27.8111C31.5866 27.8793 31.7453 27.9624 31.9035 28.0374C32.6272 28.3993 32.6203 28.4068 32.5578 29.2061C32.4372 30.7668 31.2666 31.5368 29.8791 31.9211C29.5741 32.003 29.2497 32.0111 28.9291 31.9961Z" fill="#FDFDFD"/>
  </g>
  <defs>
    <clipPath id="clip0_42_3931">
      <rect width="50" height="50" fill="white"/>
    </clipPath>
  </defs>
</svg>